# xmcd
#
# Track frame offsets: 
#        150
#        21735
#        44948
#        72421
#        96813
#        119416
#        151539
#        179192
#        179902
#        192759
#        211907
#        224603
#        227842
#        241194
#        252719
#        268252
#        282824
#
# Disc length: 3907 seconds
#
# Revision: 3
# Processed by: cddbd v1.5.2PL0 Copyright (c) Steve Scherf et al.
# Submitted via: ExactAudioCopy v0.99pb5
#
DISCID=180f4111
DTITLE=Cream - Cream Remasters - Disraeli Gears Live [CD2]
DYEAR=2008
DGENRE=Blues
TTITLE0=N.S.U
TTITLE1=Sunshine of Your Love
TTITLE2=We're Going Wrong
TTITLE3=Stepping Out
TTITLE4=Rollin' and Tumblin'
TTITLE5=Toad
TTITLE6=I'm So Glad
TTITLE7=Introduction
TTITLE8=Strange Brew
TTITLE9=Sunshine of Your Love
TTITLE10=Blue Condition
TTITLE11=Introduction
TTITLE12=Tales Of Brave Ulysses
TTITLE13=SWALABR - outro
TTITLE14=We're Going Wrong
TTITLE15=Outside Woman Blues
TTITLE16=Take It Back
EXTD=YEAR: 2004
EXTT0=
EXTT1=
EXTT2=
EXTT3=
EXTT4=
EXTT5=
EXTT6=
EXTT7=
EXTT8=
EXTT9=
EXTT10=
EXTT11=
EXTT12=
EXTT13=
EXTT14=
EXTT15=
EXTT16=
PLAYORDER=
